<svg id="Layer_1" data-name="Layer 1" xmlns="http://www.w3.org/2000/svg" xmlns:xlink="http://www.w3.org/1999/xlink" viewBox="0 0 76.5 76.9"><defs><style>.cls-1{fill:none;clip-rule:evenodd;}.cls-2{clip-path:url(#clip-path);}.cls-3,.cls-8{fill:#231f20;}.cls-3{fill-rule:evenodd;}.cls-4{fill:#fff;}.cls-5{fill:url(#linear-gradient);}.cls-6{fill:url(#linear-gradient-2);}.cls-7{fill:url(#linear-gradient-3);}</style><clipPath id="clip-path"><path class="cls-1" d="M76.5,64.7V12.2A12.2,12.2,0,0,0,64.4,0H12.1A12.2,12.2,0,0,0,0,12.2V64.7A12.2,12.2,0,0,0,12.1,76.9H64.4A12.2,12.2,0,0,0,76.5,64.7"/></clipPath><linearGradient id="linear-gradient" x1="32.95" y1="38.41" x2="43.53" y2="38.41" gradientUnits="userSpaceOnUse"><stop offset="0" stop-color="#59caee"/><stop offset="0.34" stop-color="#9de0f5"/><stop offset="0.65" stop-color="#d2f1fa"/><stop offset="0.88" stop-color="#f3fbfe"/><stop offset="1" stop-color="#fff"/></linearGradient><linearGradient id="linear-gradient-2" x1="49.07" y1="56.46" x2="60.59" y2="56.46" xlink:href="#linear-gradient"/><linearGradient id="linear-gradient-3" x1="9.27" y1="38.43" x2="67.26" y2="38.43" xlink:href="#linear-gradient"/></defs><g class="cls-2"><path class="cls-3" d="M76.5,64.7V12.2A12.2,12.2,0,0,0,64.4,0H12.1A12.2,12.2,0,0,0,0,12.2V64.7A12.2,12.2,0,0,0,12.1,76.9H64.4A12.2,12.2,0,0,0,76.5,64.7"/><circle class="cls-4" cx="70.3" cy="72.8" r="13.7"/><path class="cls-5" d="M43.5,35.2a5.3,5.3,0,1,0-10.5,0,5.3,5.3,0,0,0,2.6,4.5l-1.7,7.2h8.7l-1.7-7.2A5.3,5.3,0,0,0,43.5,35.2Z"/><path class="cls-6" d="M49.1,56l6,6a24.6,24.6,0,0,0,5.5-5.2l-5.9-5.9A20.9,20.9,0,0,1,49.1,56Z"/><path class="cls-7" d="M38.2,9.4a29,29,0,0,0,0,58,26.6,26.6,0,0,0,9-1.5L40.3,59H38.2A20.7,20.7,0,1,1,58.9,38.4a16.1,16.1,0,0,1-.5,4.4l6.7,6.7A29,29,0,0,0,38.2,9.4Z"/><path class="cls-4" d="M43.5,34.8a5.3,5.3,0,0,0-10.6,0,5.1,5.1,0,0,0,2.7,4.5l-1.7,7.2h8.6l-1.7-7.2A5.1,5.1,0,0,0,43.5,34.8Z"/><path class="cls-4" d="M49.1,55.6l6,6a24.5,24.5,0,0,0,5.5-5.2l-6-5.9A20.5,20.5,0,0,1,49.1,55.6Z"/><path class="cls-4" d="M38.2,9.1a29,29,0,1,0,0,57.9,26.6,26.6,0,0,0,9-1.5l-6.9-6.9H38.2A20.7,20.7,0,1,1,58.9,38a21.2,21.2,0,0,1-.5,4.4l6.7,6.7a29.1,29.1,0,0,0-26.9-40Z"/><path class="cls-8" d="M72.8,65.1a11.3,11.3,0,0,1-1.9,6.1,4,4,0,0,1-1.2-1S72.4,67.7,72.8,65.1Z"/><path class="cls-8" d="M72.8,65.1c-.4,2.6-3.1,5.1-3.1,5.1A9.6,9.6,0,0,0,71.2,66s-1.2-1.6-4.8-2.3H67A12.7,12.7,0,0,1,72.8,65.1Z"/><path class="cls-8" d="M71.2,66a11.6,11.6,0,0,0-4.2-.8h-.4a6.8,6.8,0,0,1-.2-1.5C70,64.4,71.2,66,71.2,66Z"/><path class="cls-3" d="M67.6,74.2a10,10,0,0,1-5.3-9.1h0a18.1,18.1,0,0,1,3.5.2l-1.9.7A8.9,8.9,0,0,0,67.6,74.2Z"/><path class="cls-3" d="M65.8,65.3a18.1,18.1,0,0,0-3.5-.2,10.3,10.3,0,0,1,3.3-1.3A7.7,7.7,0,0,0,65.8,65.3Z"/><path class="cls-3" d="M68.6,72.2,69,71c-.1.2-.3.3-.4.4v-.3h0l.2-.2v-.2c-.1-.1-.1-.2-.2-.2s-.4,0-.4.2,0,.3.2.4h0v.5l-.8.7v-2a.2.2,0,0,0,.2-.2c.1-.1,0-.1,0-.2a.2.2,0,0,0-.2-.2c-.1-.1-.3,0-.4.2v.2c.1.1.1.2.2.2h0v1.9l-.6-.4v-.9a.1.1,0,0,0,.1-.1H67a.2.2,0,0,0,0-.3c0-.1-.1-.1-.2-.2h-.4v.3l.2.2h0v.7A8.3,8.3,0,0,1,63.9,66a8.9,8.9,0,0,0,3.7,8.2h0c.1-.3.3-.5.4-.8l.6-.4Zm-.2-1.4h.2c0,.1,0,.1-.1.1h-.1S68.3,70.8,68.4,70.8Zm-1.8-.2h.2c0,.1.1.1,0,.2h-.2Zm.8-.5h.2s-.1.1-.1,0Zm.8,2.9.2-.3v.2Z"/><path class="cls-3" d="M70.3,72a19.9,19.9,0,0,1-2.7,2.2A14.7,14.7,0,0,0,69,71Z"/><path class="cls-8" d="M65.7,69.5h-.5a.1.1,0,0,1-.1-.1v-.2h.7V69h0v.2h-.1Z"/><path class="cls-8" d="M66.6,69.5h-.7v-.5a.1.1,0,0,0,.1-.1h.6V69h0Z"/><path class="cls-8" d="M67.4,69.5h-.7v-.5h.7V69h-.5v.3h.5Z"/><path class="cls-8" d="M68.1,69.5h-.6v-.6h.2v.5H68a.1.1,0,0,0,.1-.1v-.5h.1v.6h-.1Z"/><path class="cls-8" d="M69.2,69.5h-.3l-.2-.2h-.1v.2h-.2v-.7h.7v.2h-.2Zm-.3-.4Z"/><path class="cls-8" d="M69.9,69.5h-.6v-.5h.6V69h0Z"/><path class="cls-8" d="M66.7,68.6h-1l-1.3-2.7h.9l.9,1.9.9-1.9H68Z"/><path class="cls-8" d="M68.7,68l1.2-.8a.5.5,0,0,0,.3-.4v-.4A.5.5,0,0,0,70,66H68.1l-.5.9h.7v-.2h1.1v.2a.1.1,0,0,0-.1.1L67.5,68v.6h2.1l.2-.6Z"/><polygon class="cls-8" points="62.1 64.7 62.1 64.7 62.1 64.7 62.1 64.7"/><path class="cls-8" d="M73,64.7h0a11,11,0,0,0-2.9-1l-2.2-.4H66.6a3.8,3.8,0,0,0-1.3.2h0l-1.7.5-1.5.7h-.2V65a13.6,13.6,0,0,0,.4,3,9.3,9.3,0,0,0,1,2.5A9.2,9.2,0,0,0,65,72.7a8.3,8.3,0,0,0,2.1,1.6l.4.3.4-.2H68l1.3-1,1.2-1.2h0l.3-.3.6-.8h0a14.5,14.5,0,0,0,1.1-2.5,9.6,9.6,0,0,0,.7-3.6v-.2Zm.1.3a9.6,9.6,0,0,1-.7,3.6,18.9,18.9,0,0,1-1.1,2.5l-.3.4-.3.4-.3.3-1.2,1.1-1.3,1h-.1l-.2.2-.4-.3h0a8.3,8.3,0,0,1-2.1-1.6,8.7,8.7,0,0,1-1.7-2.1,10.9,10.9,0,0,1-1-2.5,27.2,27.2,0,0,1-.4-3h.2l1.5-.7,1.6-.5a5.6,5.6,0,0,1,1.3-.2h1.3l2.2.4a11,11,0,0,1,2.9,1h.1Z"/></g></svg>